<svg version="1.1" id="Layer_1" xmlns="http://www.w3.org/2000/svg" x="0" y="0" viewBox="0 0 1920 791" xml:space="preserve"><style>.st4{fill:#321a4c}.st5{fill:#461e5f}.st6{fill:#8533ad}.st10{fill:#660096}.st11{fill:#f1d4b7}.st13{fill:#ee880e}.st14{fill:#f7b238}.st15{fill:#eaa241}.st16{fill:#d53580}.st17{fill:#eac9b5}.st18{fill:#e83d7d}.st20{fill:#f7d84f}</style><path d="M-7.4-7.5h1928.7v800.8H-7.4V-7.5z" fill="#f7f7f7"/><linearGradient id="SVGID_1_" gradientUnits="userSpaceOnUse" x1="957.703" y1="653.272" x2="989.627" y2="-31.097" gradientTransform="matrix(1 0 0 -1 0 792)"><stop offset="0" stop-color="#9e78b2"/><stop offset="1" stop-color="#be83e1" stop-opacity="0"/></linearGradient><path d="M-39.9 769.1c7.5-72 62-133.9 128.7-162.1s143.1-26.3 213-7.5c54.1 14.6 98.7 35.7 154.4 30.1 73.9-7.5 140.1-61.6 194.9-111.7 159.6-146 368.6-257.7 583.8-235.6 90.2 9.2 177.8 42.1 251.8 94.4 69.7 49.3 133.7 118 218.7 126.5 53 5.3 112.2-46.5 183.3-31.1 73.8 16 91.1 64.8 117.1 118.7v220.5H-36.6l-3.3-42.2z" opacity=".51" fill="url(#SVGID_1_)"/><g opacity=".51"><linearGradient id="SVGID_2_" gradientUnits="userSpaceOnUse" x1="945.411" y1="520.27" x2="972.528" y2="-56.925" gradientTransform="matrix(1 0 0 -1 0 792)"><stop offset="0" stop-color="#9e78b2"/><stop offset="1" stop-color="#be83e1" stop-opacity="0"/></linearGradient><path d="M1999 800.7H-67.6l-3.3-43c3.6-34.9 18.4-69.1 42.7-98.8 23.2-28.4 53.5-51.1 87.7-65.5 32.2-13.6 68.1-20.9 106.7-21.7 35.2-.7 71.9 4.1 109.1 14.1l5.8 1.6c53.5 14.4 108.8 29.4 163.1 23.9 74.1-7.5 126.9-55.8 182.9-107l1-.9c87.4-80 179.7-141.5 274.3-183 107.9-47.3 214.4-65.9 316.5-55.5 91.6 9.4 179.7 42.4 254.9 95.5 16.8 11.9 33.6 25.1 49.8 37.9 52 41 105.8 83.4 171.1 89.9 23.2 2.3 47.7-6.3 73.7-15.4 33.2-11.7 70.9-24.9 111.7-16 68.9 14.9 89.2 57.7 112.6 107.3 2 4.3 4.1 8.6 6.2 13v223.6h.1zm-2065.7-1H1998V577.3c-2.1-4.3-4.1-8.6-6.1-12.9-23.3-49.4-43.5-92-111.9-106.8-40.6-8.8-76.5 3.8-111.2 16-26.1 9.1-50.7 17.8-74.2 15.5-65.6-6.5-119.5-49-171.6-90.1-16.2-12.8-33-26-49.8-37.9-75.1-53-163-86-254.4-95.3-102-10.4-208.3 8.2-316 55.4-94.4 41.4-186.6 102.9-274 182.8l-1 .9c-56.1 51.3-109 99.8-183.5 107.3-54.5 5.5-109.9-9.5-163.5-23.9l-5.8-1.6c-37.1-10-73.7-14.7-108.8-14-38.5.7-74.2 8-106.3 21.6-34 14.4-64.2 37-87.3 65.2-24.2 29.5-38.9 63.5-42.5 98.2l3.2 42z" fill="url(#SVGID_2_)"/></g><path class="st4" d="M1242.2 83.4h190.2c27.8 0 50.4 22.5 50.4 50.4v500.1c0 27.8-22.5 50.4-50.4 50.4h-190.2c-27.8 0-50.4-22.5-50.4-50.4V133.8c0-27.8 22.6-50.4 50.4-50.4z"/><path class="st5" d="M1229.9 82.9h190.2c27.8 0 50.4 22.5 50.4 50.4v500.1c0 27.8-22.5 50.4-50.4 50.4h-190.2c-27.8 0-50.4-22.5-50.4-50.4V133.3c0-27.8 22.6-50.4 50.4-50.4z"/><path class="st4" d="M1275.3 599.1c-14-29.8-40.6-74.8-48.7-88.4l-6.3-14.4-.1.1c-16.6-54.7 4.9-94.2 9.8-135 1.2-2.9 2.4-5.9 3.5-8.9 5.8-15.2 2.4-31.9-5.5-42.1.1.1.2.2.3.4 0 0-9.2-11.7-1.3-22.9.3-.5.7-1 1-1.5 3.8-2.1 9.1-5.7 12.6-10.9 6-9.1 7.6-29.9-5.4-42-12.6-11.7-18.1-21.4-23.7-33.5-9.3-20.3-17.9-27-31.6-34.2-.2-.1-.3-.2-.5-.3v79.1c1.8 5.7 2.1 12.3 0 20.7v368.3c0 27.8 22.5 50.4 50.4 50.4h78.9c-9.2-27.7-20.5-57.4-33.4-84.9zm-39.7-352c7.7 13.5 1.8 25.7-4.1 33.2 5.7-11.2 8.4-26.2-4.3-39.3-12.8-13.2-20.3-17.6-21.8-28.7 6 18.1 21.8 20.1 30.2 34.8z"/><path class="st6" d="M1230.7 97.4h19.2c3.1 0 5.6 2.5 5.6 5.6v8c0 6.1 5 11.1 11.1 11.1h116.7c6.1 0 11.1-5 11.1-11.1v-8c0-3.1 2.5-5.6 5.6-5.6h19.2c21.1 0 38.3 17.1 38.3 38.3V631c0 21.1-17.1 38.3-38.3 38.3h-188.6c-21.1 0-38.3-17.1-38.3-38.3V135.6c.2-21.1 17.3-38.2 38.4-38.2z"/><path d="M1280.5 657.5h88.7c1.2 0 2.1-.9 2.1-2.1 0-1.2-.9-2.1-2.1-2.1h-88.7c-1.2 0-2.1.9-2.1 2.1 0 1.2.9 2.1 2.1 2.1z" fill="#c299d6"/><path d="M1340.2 109.4h-33c-.8 0-1.5-.7-1.5-1.5s.7-1.5 1.5-1.5h33c.8 0 1.5.7 1.5 1.5s-.7 1.5-1.5 1.5zm-40.2 0h-4c-.8 0-1.5-.7-1.5-1.5s.7-1.5 1.5-1.5h4c.8 0 1.5.7 1.5 1.5s-.7 1.5-1.5 1.5z" fill="#791fa5"/><path d="M1275.3 599.1c-14-29.8-40.6-74.8-48.7-88.4l-6.3-14.4-.1.1c-16.6-54.7 4.9-94.2 9.8-135 1.2-2.9 2.4-5.9 3.5-8.9 5.8-15.2 2.4-31.9-5.5-42.1.1.1.2.2.3.4 0 0-9.2-11.7-1.3-22.9.3-.5.7-1 1-1.5 3.8-2.1 9.1-5.7 12.6-10.9 6-9.1 7.6-29.9-5.4-42-12.6-11.7-18.1-21.4-23.7-33.5-6.1-13.4-12-20.9-19.2-26.5V631c0 21.1 17.1 38.3 38.3 38.3h73c-8.1-23.3-17.6-47.5-28.3-70.2zm-39.7-352c7.7 13.5 1.8 25.7-4.1 33.2 5.7-11.2 8.4-26.2-4.3-39.3-12.8-13.2-20.3-17.6-21.8-28.7 6 18.1 21.8 20.1 30.2 34.8z" fill="#791fa2"/><path class="st10" d="M1376 519.3c-7.4 0-13.5-4.4-19.7-11.2l-.1-.1c-9.1-12.1-26.6-33.5-30.4-37.2l-1.2-1.2-.1-.2c-.8-1.5-3.2-4.1-7.5-4.1-4.1 0-5.9 2.2-7.6 4.1-.4.4-.7.9-1.1 1.3-2.6 3.7-30.6 38.4-32.6 40.4-1 1-6.4 6.1-13.6 7.3-6.6 1.1-13.8-.2-17.9-3.2-6-4.5-9.5-7.7-11.2-10.2l-.1-.2-.1-.2c-.2-.7-.7-1.5-1.2-2.4-1.5-2.8-3.6-6.5-2.8-12.1 1-7.2 2.2-10.4 7.2-16.5 10.3-12.4 35-41.9 40.4-48.2 0 0 4.5-5.5 3.6-13.6-.9-7.9-4-11.5-11.6-13.5-7.1-1-30.8-7-37.5-8.9l-.4-.1-.3-.3c-.2-.2-.8-.4-1.4-.6-.8-.3-1.7-.6-2.4-1.2-4.9-3-15.5-11.3-12.4-26.1v-.2l2.9-8.8c.2-1 2-8 8.9-12.4 5.7-3.7 13.3-4.5 22.4-2.4 14.2 2.7 24.6 5.4 31.5 7.2 2.9.7 5.2 1.3 6.7 1.6h5.4c1.7-.9 3.1-1.6 3.8-3.8.9-5.5-.1-6.6-3-8.1-5.7-1.5-27.6-13.6-30.5-43.6-1.4-14.9 3.4-29.2 13.5-40.4 10.6-11.6 25.9-18.3 42.1-18.3 33.9 0 56.6 26.7 56.6 51.7 0 25.4-15.2 44-29.4 50.6-5.6 2.4-4.2 7.8-4.1 8.1v.2s.4 2.1 2 3.3c1.2.8 2.9.9 5 .4h.2c6.7-1 42.8-9.7 43.2-9.8.3-.1 24.2-3.9 29.4 18.8 2.6 9.4 2 17.4-1.8 23.7-4.6 7.6-12 9.9-15 10.6-3.1.8-8.6 2-14.4 3.4-8.7 2-18.6 4.3-22.8 5.4l-5.6 2.8c-2 2-5.4 5.5-6.3 11.7 0 5.7 0 10.3 5.6 17.7 5.8 7.8 40.9 49.7 41.3 50.1.2.2 5.4 5.9 4.8 13.9-.5 5.7-3.8 11-9.9 15.8-8 6.3-14.7 9-20.5 9zm-17.5-13.2c13.5 14.7 23.2 12 36.3 1.7 5.4-4.2 8.4-8.8 8.8-13.7.5-6.7-4-11.6-4-11.7-1.5-1.8-35.6-42.5-41.4-50.3-6.2-8.3-6.2-13.5-6.2-19.6v-.2c1.1-7.4 5.3-11.6 7.3-13.6l.2-.2 6.4-3.2c4.2-1.2 14.2-3.5 23.1-5.5 5.8-1.3 11.2-2.6 14.3-3.3 2.7-.6 9.2-2.7 13.2-9.2 3.4-5.6 3.9-12.8 1.5-21.4-1.9-8.5-6.8-13.8-14.6-15.9-5.9-1.6-11.2-.7-11.3-.7-1.4.3-36.2 8.8-43.3 9.8-2.9.7-5.4.4-7.3-.9-2.5-1.7-3.2-4.6-3.3-5.2-.8-2.9-.6-8.8 5.8-11.5 13.3-6.1 27.6-23.7 27.6-47.8 0-23.5-21.5-48.7-53.6-48.7-15.4 0-29.9 6.3-39.9 17.3-9.6 10.6-14.1 24.1-12.7 38.1 2.8 28.6 23.4 39.8 28.4 41l.3.1c4.7 2.4 5.8 5 4.7 11.4l-.1.2c-1.2 3.5-3.6 4.7-5.7 5.8l-.3.2h-6.6c-1.6-.3-3.8-.9-7-1.7-6.9-1.8-17.2-4.4-31.4-7.1-8.4-1.9-15.2-1.3-20.2 2-6.2 4-7.6 10.5-7.6 10.6v.2l-2.9 8.8c-2.7 13 6.9 20.4 11.1 22.9l.3.2c.2.2.8.4 1.4.6.7.2 1.5.5 2.2 1.1 7.1 2 30 7.7 36.9 8.7h.2c8.9 2.2 12.9 6.9 13.9 16 1 9.4-4.1 15.6-4.3 15.9-5.5 6.5-32.3 38.5-40.3 48.2-4.7 5.6-5.6 8.2-6.6 15-.6 4.5 1.1 7.7 2.5 10.2.5.9 1 1.8 1.3 2.7 1.5 2.1 5 5.3 10.4 9.3 3.4 2.5 9.8 3.6 15.6 2.7 6.4-1.1 11.4-5.9 12-6.5 2-2 30.4-37.3 32.3-40.1l.2-.2c.3-.3.7-.7 1-1.2 1.7-2.1 4.4-5.2 9.9-5.2 5.6 0 8.9 3.4 10.1 5.5l.8.8c4.2 4.3 21.9 26 30.6 37.6z"/><path class="st11" d="M1064 470.1c-5 14.8-25.6 17.7-60.3 40.8-26.7 17.9-40.2 26.3-51.7 34.3-14.6 9.3-35.6 15.3-43.1 23.2-4.6 4.6-11.3 12.6-15.5 15.9-4 3.2 5.1 3.6 7.5 1.5-3.4 5.1-9.5 11.5-8 13 1.9 1.6 7.1-.9 11.2-4.7.9-.8 2-1.8 3.1-2.6-1.4 3.1-2.5 7.4-4 12.6-1.3 4 6.3.4 10.7-7.2 4.5-7.5 4.2-6.3 12.1-13.9 1.6-1.6 6-5.9 6.7-6.6 4-3.9 6.5-.9 5.6 4.8-.7 5.8-4.8 6.8-8.1 13.1-2.4 4.6-.6 8.5 6 1.6 6.5-6.7 11.3-8.1 15.3-12.3 3.4-3.6 6.7-13.3 11.5-18.9 13.2-12.7 28.1-15.6 69.6-32.8 25.8-10.6 40.2-19 47.3-27.3 4.1-.3 7.5-2.1 8.6-6.1 3.3-12.1 6.2-96.2 6.2-96.2l-34.8 21.6c2.9 11.4 4.4 29.4 4.1 46.2zm18.8-148.9c-8.7 9.6-13.1 28.7-13.1 58.2l41.1-68.7c-9.8 1-19.4 1-28 10.5z"/><path d="M1249.5 795.1h-200.8c-26.2-72.2.1-186.5 25.3-259.3 7.3-21 1.6-74.5-7.2-91.9-8.1-15.6-13.9-23.6-16.3-38.4-1.8-10.7 2.2-24.6 10.6-34.3 11.8-13.8 22.1-17.3 33.5-33.5 12.6-18 14-26.3 16.3-26.9 15.9-3.3 20.5-3.4 35.4-5.5 20.5-2.7 44.7-8.1 63.1 0 15.4 6.7 14.2 32.8 9.6 57.5-9.9 53-48.7 101.7 4.6 191.8 12.4 20.7 58.7 135.5 25.9 240.5z" fill="#ff9600"/><path class="st13" d="M1223.7 554.5c-53.4-90.1-14.5-138.8-4.6-191.8 1.2-6.5 2.2-13.1 2.7-19.4l-16 30.5c-3.5 27-23.9 73.2-21.7 95.8 2.2 22.6 12 52.8 39.9 109.1 13.8 27.7 27.1 82.5 37.1 130.9-1.4-74.9-28.4-140-37.4-155.1z"/><path class="st13" d="M1209.9 384.7s-3.8 36.8-59.8 93.5c-28 28-30.2-27.6-30.2-27.6l90-65.9z"/><path class="st14" d="M1092.8 348.3c3.4 0 6.1-2.7 6.1-6.1 0-2.5-1.5-4.6-3.6-5.6-.2.3-.5.7-.7 1-2.2 3.2-4.5 5.9-6.6 8.3 1 1.5 2.8 2.4 4.8 2.4z"/><circle class="st14" cx="1092.8" cy="382.6" r="6.1"/><circle class="st14" cx="1092.8" cy="422.9" r="6.1"/><circle class="st14" cx="1092.8" cy="463.3" r="6.1"/><circle class="st14" cx="1092.8" cy="503.7" r="6.1"/><circle class="st15" cx="1144.4" cy="463.3" r="6.1"/><circle class="st14" cx="1146.5" cy="505.2" r="6.1"/><path class="st14" d="M1063.4 368.5c1 .7 2.2 1.2 3.6 1.2 3.3 0 6.1-2.7 6.1-6 0-1.2-.3-2.4-1-3.4-2.9 2.4-5.7 5-8.7 8.2z"/><circle class="st14" cx="1067" cy="403.9" r="6.1"/><path class="st14" d="M1066.8 443.9c.9 1.7 1.7 3.7 2.5 6 2.2-.9 3.8-3.1 3.8-5.7 0-3.4-2.7-6.1-6.1-6.1-1 0-2 .3-2.8.7.8 1.7 1.7 3.3 2.6 5.1z"/><circle class="st14" cx="1118.6" cy="403.9" r="6.1"/><circle class="st14" cx="1118.6" cy="484.7" r="6.1"/><path class="st15" d="M1198 428.4c1.1 0 2.1-.3 3-.8.7-2.9 1.4-5.8 2.2-8.6-1.1-1.7-3-2.9-5.2-2.9-3.4 0-6.1 2.7-6.1 6.1 0 3.5 2.7 6.2 6.1 6.2zm-2 41h.2c-.1-4.2 0-8.2.2-12.2h-.4c-3.4 0-6.1 2.7-6.1 6.1s2.7 6.1 6.1 6.1z"/><circle class="st15" cx="1170.2" cy="444.3" r="6.1"/><circle class="st14" cx="1171.5" cy="485.6" r="6.1"/><path class="st13" d="M1118 438.6c-20.2-4.6-36.8-6.2-37.7.6-.9 6.7 32.2 18.1 47.1 10.8 14.7-7.3-9.4-11.4-9.4-11.4z"/><path class="st16" d="M1112.6 165.4c-12.6-2-34.6 18.6-30.6 47.9s12.6 47.9 3.3 63.8.7 30.6 12.6 39.9c8.6 6.7 5.5 13.7 3.1 17.1-.9 1.2-.3 3 1.2 3.3 4.1 1 11.6.5 17.3-12.8 7.3-17.3 9-16 21-21 20.6-8.6 27.9 35.9 45.9-5.3l18-41.2-16.6-43.9s-8.6-23.3-29.3-29.9-20.6-6.7-20.6-6.7l-25.3-11.2z"/><path class="st17" d="M1093.5 203.4c-1.9 10.8-3.4 35-.2 52.2 3.2 17.8 10.5 28.9 20.3 30.6 9.3 1.6 15.8-3.2 19.4 1.9 5.5 7.6-1.9 27.7-10.6 38.7-6.5 8.2-13.9 21-15 28.5-2.5 14.2 10.9 28.5 29.4 19.4 10.6-5.2 26.1-26.5 26.1-68.4 0-27.7 2.2-37 5.8-51.3 3.5-14.1 14.1-35.2 9.3-57.4-5.1-23.6-28.9-34-46.4-31.3-27.8 4-35.3 20.6-38.1 37.1z"/><path class="st18" d="M1115.3 166.9c-1.6-6.7-37 9.5-26.2 41.2 2.3 6.7 10.2 10.4 20.2 7.4s16.2-5.5 29.7-1.7c0 .1-16.4-15.3-23.7-46.9z"/><path class="st11" d="M1200.1 301.8c-22.9 3.5-5.4 33.5-79.1 128.5-18 23.2-2.1 49.5 24.6 28.8 13.3-10.3 48.2-40.8 77.5-104.4 11.5-24.9-2.9-56.1-23-52.9z"/><path class="st17" d="M1168.2 357.7c-2.7 5.4-5.9 11.3-9.5 17.6l-14.1 77.5s17.3-13.4 23-53.1c2.2-15.5.6-35.8.6-42z"/><path class="st5" d="M1153.2 288l-27.3-18.2c-.9-.8-1.3-2.1-.7-3.2l30.5-60.8c.8-1.5 2.4-2.7 4-3.1l1.6-.2 22.7 23-30.8 62.5z"/><path class="st10" d="M1156.2 286.1l-25.9-17.4c-.9-.8-1.3-2.2-.7-3.3l31.7-63.3L1189 226l-32.8 60.1z"/><path d="M1155.7 215.3s-.6 2.6.2 5.1c.8 2.5 4 7.6 4.1 9.6.2 1.8-.6 4.9-.6 4.9s-7.2-6.6-9.6-6.5c-2.5.1-1.8 1.5-1.8 1.5s2.2 1.8 3.2 2.7c.9.9 4.3 6 4.3 6l-13.1-2.2 4.6 4.2 6.7 8.8 1.9 7.6 5.2-12.3s1.1-6 1.5-11.2c.5-5.1-1.3-12.1-1.3-12.1l-5.3-6.1zm-14.1 30.8l1.9.2 3.9 10.8s-8.2 14.7 2.1 25.2c4.1 4.1 3.5-16.5 3.5-16.5s1.6-10.5-2.5-16.5-7.2-6.8-7.2-6.8l-1.7 3.6z" fill="#55057f"/><path class="st11" d="M1164.7 254.2c-.1-2.2 4.2-14.9 2.2-16.5-3.1-2.1-7.6-8.2-9.6-11.2-1.6-2.4-8.5-1.5-10.8-.7-1.3.5-1.6 3.2 1.8 4.1 1.8.6 4 .7 4 .7s1.8 3.4 4.2 6.2c2.5 2.7 4 4.6 4 4.6l-3.4 7.3.2 12.3 7.4-6.8z"/><path class="st11" d="M1164 239.7c-.6-.5-1.9-10.9-2.7-12.5-.8-1.4-4.6-6.7-5.1-9.1-.7-2.4-.6-4.6-.1-5.4.5-.8 4 1.8 5.6 4.4 1.6 2.6 4.9 7.3 5.6 10.6.8 3.3 6.5 20.2 5.1 32-1.4 11.8-7.5 28.7-7.5 28.7l-.9-48.7z"/><path class="st11" d="M1154 258.5c.1 2.2 4.7 5.4 6.7 2.6 2.1-2.9 3.9-6.6 4-11.4.1-4.8-1.8-6.8-4.7-8.9-2.9-2.1-8.5-6.3-10.1-7.1-1.1-.5-3.4-.9-5.2-1.3-1.1-.1-2.2-.1-3.1.8-2.4 2.6 4.9 5.1 4.9 5.1s6.3 6 8 7.2c1.6 1.1-.7 7.5-1.1 10.9"/><path class="st11" d="M1151.3 282.5s2.6 10.7 7.6 8.5c5.1-2.2 10.8-20.3 11.5-26.9s-3.5-27.2-3.5-27.2l.1-4.7-7.5 21.2-8.2 29.1z"/><path class="st11" d="M1140.1 245.6l3.5.6 6.8 9.2s-.2 3.9-2.6 11.5 2.9 20.6 2.9 20.6-1.3-1.8 2.4-10.3c3.8-8.3 6-21.4 6.3-24 .2-2.6-9.9-10.5-12.2-12.5-2.2-2.1-5.9-.2-9.5.1-1.6.2-1.8 1.3-1.4 2.2.6 1.8 2.1 2.8 3.8 2.6z"/><path class="st6" d="M1141.9 279c.1 0 .2 0 .2-.1.1-.1.1-.5-.1-.6l-3.2-2.2c-.1-.1-.5-.1-.6.1-.1.1-.1.5.1.6l3.2 2.2h.4z"/><path class="st11" d="M1167.7 265.2c-6.5 61.1-2.6 136.1-14.7 177.2-9.2 31-45.3 33.4-40-2.2 6.7-45.1 10.1-63.3 24.7-108.6 5.1-16.1 12.2-38.4 12.2-62.1-.2-9.6 18.8-15.5 17.8-4.3z"/><path class="st10" d="M970.9 178.8c23.2-.6 45.1 18.5 47.9 41.5 1.2 10.3-1.1 20.3-5.8 28.7l6 14.6c.7 1.8-.8 3.5-2.7 3.2l-13.9-3.3c-.9-.2-2 0-2.8.6-7.3 5.3-16.3 8.6-26.2 8.9-23.2.7-45.1-18.1-48.1-41.1-3.6-27.8 17.6-52.4 45.6-53.1z"/><path class="st6" d="M977.6 175.4c23.2 1.2 43.6 21.9 44.6 45 .4 9.8-2.2 18.9-6.9 26.6-.7 1.1-.8 2.5-.5 3.8l3.9 11.9c.6 1.8-1.2 3.5-2.9 2.9l-12.2-4c-.9-.4-2.1-.1-2.9.5-7.8 4.9-17 7.8-27 7.4-24.2-.8-44.2-20.3-45.4-44.7-1.6-27.9 21.3-50.8 49.3-49.4z"/><circle class="st20" cx="996.2" cy="222.3" r="5.1"/><circle class="st20" cx="974.2" cy="222.3" r="5.1"/><circle class="st20" cx="952.2" cy="222.3" r="5.1"/><path class="st18" d="M1076.7 518.5s-31.3 86.5-45.2 147c-14 60.9-16 131.7-16 131.7l282-2.7s-16.6-105.1-49.9-190.9c-14.2-36.6-44.6-95.8-44.6-95.8s-14.6 20-72.5 25.9c-44.9 4.8-53.8-15.2-53.8-15.2z"/><path class="st16" d="M1080 531.8s-37.3 151.5-37.9 265.4l18-1.3s-.7-153 19.9-264.1zm67.8 6.7s34.7 142.1 35.3 255.9l-27.3 1.4c0 .1 12.6-146.2-8-257.3zM1176.6 527l-.6-1.4.9-.4.6 1.4-.9.4zm58.4 264.6l-.3-3 1-.1.3 3-1 .1zm-.6-6l-.3-3 1-.1.3 3-1 .1zm-.7-6.1l-.3-3 1-.1.3 3-1 .1zm-.6-6l-.3-3 1-.1.3 3-1 .1zm-.7-6l-.3-3 1-.1.3 3-1 .1zm-.6-6l-.3-3 1-.1.3 3-1 .1zm-.7-6l-.4-3 1-.1.4 3-1 .1zm-.7-6l-.4-3 1-.1.4 3-1 .1zm-.8-6l-.4-3 1-.1.4 3-1 .1zm-.7-6l-.4-3 1-.1.4 3-1 .1zm-.8-6l-.4-3 1-.1.4 3-1 .1zm-.8-6l-.4-3 1-.1.4 3-1 .1zm-.8-6l-.4-3 1-.1.4 3-1 .1zm-.8-6l-.4-3 1-.1.4 3-1 .1zm-.8-6l-.4-3 1-.1.4 3-1 .1zm-.9-6l-.4-3 1-.1.4 3-1 .1zm-.9-6l-.5-3 1-.2.5 3-1 .2zm-.9-5.9l-.5-3 1-.2.5 3-1 .2zm-1-6l-.5-3 1-.2.5 3-1 .2zm-1-6l-.5-3 1-.2.5 3-1 .2zm-1-5.9l-.5-3 1-.2.5 3-1 .2zm-1.1-6l-.6-3 1-.2.6 3-1 .2zm-1.1-5.9l-.6-3 1-.2.6 3-1 .2zm-1.2-5.9l-.6-3 1-.2.6 3-1 .2zm-1.2-6l-.6-3 1-.2.6 3-1 .2zm-1.3-5.9c-.2-1-.5-2-.7-2.9l1-.2c.2 1 .5 2 .7 2.9l-1 .2zm-1.4-5.8c-.2-1-.5-2-.7-2.9l1-.2c.2 1 .5 1.9.7 2.9l-1 .2zm-1.5-5.9c-.3-1-.5-1.9-.8-2.9l1-.3c.3 1 .5 1.9.8 2.9l-1 .3zm-1.6-5.8l-.8-2.9 1-.3.8 2.9-1 .3zm-1.6-5.8c-.3-1-.5-1.9-.8-2.9l1-.3c.3 1 .6 1.9.8 2.9l-1 .3zm-1.7-5.8l-.8-2.9 1-.3.8 2.9-1 .3zm-1.7-5.8l-.9-2.9 1-.3.9 2.9-1 .3zm-1.7-5.8c-.3-1-.6-1.9-.9-2.9l1-.3c.3 1 .6 1.9.9 2.9l-1 .3zm-1.8-5.8l-.9-2.9 1-.3.9 2.9-1 .3zm-1.8-5.7l-.9-2.9 1-.3.9 2.9-1 .3zm-1.9-5.8l-.9-2.9 1-.3.9 2.9-1 .3zm-1.8-5.8l-.9-2.9.9-.3.9 2.9-.9.3zm-1.9-5.7c-.3-1-.6-1.9-1-2.9l.9-.3c.3.9.6 1.9 1 2.9l-.9.3zm-2-5.7l-1-2.9.9-.3 1 2.9-.9.3zm-1.9-5.7l-1-2.9.9-.3 1 2.9-.9.3zm-2-5.7l-1-2.9.9-.3 1 2.9-.9.3zm-2-5.7l-1-2.8.9-.3 1 2.8-.9.3zm-2.1-5.7l-1-2.8.9-.3 1 2.8-.9.3zm-2.1-5.7l-1.1-2.8.9-.3 1.1 2.8-.9.3zm-2.1-5.7c-.4-1.1-.8-2-1.1-2.8l.9-.4c.3.8.7 1.8 1.1 2.8l-.9.4zm56.7 263.3l-.1-1.5.9-.1.2 1.5-1 .1z"/><path class="st20" d="M1077.2 506.7l-1.8 14.7s14.2 19.1 63.4 12.9 66.5-22.2 66.5-22.2l-5.3-14.8s-27.4 17.1-65.1 20.6c-37.8 3.5-57.7-11.2-57.7-11.2z"/><path class="st18" d="M1108.6 176s-3 14.1 7.3 26.6c12.6 15.3 42.1 8.8 53.2 25.3 8.3 12.3 13.1 24.1 1.2 47.4-12 23.3-14.5 32.8-8.5 42.7 3.7 6.2 6.7 12.2 6.7 17.6 0 3.2-.6 5.6-1.3 7.3-.6 1.5 1 3 2.5 2.3 3.8-1.8 9.1-6.6 12.6-19.2 4.3-15.8 11.8-21.9 17-23.1 6.5-1.5 13.8-1.2 21.5 9.8 0 0-8.4-12.3.2-22.9s18-29.3 3.3-46.6c-14.6-17.3-22.1-20.8-19.3-39.2 3.3-21.9-28.6-53.4-60.5-52.5-23.9.6-34.5 15.9-35.9 24.5z"/><path class="st16" d="M1087.7 184.3c-5 6.7-8 16.6-7.3 34.6s5.5 38.6.3 50.2c-5.3 12-3.7 28.3 6.3 33.9 0 0-9.3-10-5-23.6s8.3-14.3 6.3-42.9-.6-52.2-.6-52.2z"/><path class="st18" d="M1177.5 161.6c16.3 9.6 25.4 16 34.3 39.4 4.7 12.5 9.5 22.5 21.3 35.1 12.1 13 9.1 33.6 2.5 42.2-6.4 8.3-17.8 11.8-17.8 11.8s25.8-17 14.6-40.2c-8.1-17-26.6-19-28.9-43.6-2.4-24.6-26-44.7-26-44.7z"/><path class="st16" d="M1247.6 603.7c-14.2-36.6-44.6-95.8-44.6-95.8s-2.1 2.8-7.6 6.6c6.2 16.9 15.3 37.6 28.5 64.1 24.3 49 47.3 182.5 52.8 216.1l20.8-.2s-16.6-105-49.9-190.8z"/><path d="M1205.2 512.1l-5.3-14.8s-3.2 2-8.8 4.7c1.5 4.9 3.4 10.1 5.5 15.8 6-3.3 8.6-5.7 8.6-5.7z" fill="#eac456"/></svg>