<?xml version="1.0" encoding="utf-8"?>
<!-- Generator: Adobe Illustrator 16.0.3, SVG Export Plug-In . SVG Version: 6.00 Build 0)  -->
<!DOCTYPE svg PUBLIC "-//W3C//DTD SVG 1.1//EN" "http://www.w3.org/Graphics/SVG/1.1/DTD/svg11.dtd">
<svg version="1.1" id="Layer_1" xmlns="http://www.w3.org/2000/svg" xmlns:xlink="http://www.w3.org/1999/xlink" x="0px" y="0px"
	 width="460px" height="340px" viewBox="0 0 460 340" enable-background="new 0 0 460 340" xml:space="preserve">
<g>
	<path opacity="0.15" fill="#6D2F91" enable-background="new    " d="M342.741,238.91c-7.836,2.457-22.467,7.021-39.324,11.566
		c-3.019,0.782-3.937,1.051-6.676,0.656c-4.339-0.63-9.375-2.768-9.875-4.765c-0.257-0.989,0.123-1.605,2.702-2.467
		c9.438-3.037,29.641-8.515,40.897-11.851c8.747-2.611,11.865-5.478,2.873-6.183c-6.898-0.613-15.862-1.459-22.815-2.281
		c-2.05-0.268-2.418-0.565-2.05-1.431c0.885-2.153,6.771-5.993,13.313-7.427c2.425-0.521,4.093-0.563,6.108-0.437
		c7.703,0.47,18.839,1.727,29.882,2.355c3.717,0.206,8.973-2.67,6.326-3.112c-9.121-1.59-12.489-5.353-7.426-9.755
		c5.785-4.938,20.544-9.169,35.023-10.223c4.813-0.348,9.429-0.348,13.459,0c11.953,1.054,17.022,5.284,11.231,10.223
		c-5.097,4.402-17.21,8.165-29.949,9.755c-3.716,0.442-5.194,3.318-0.976,3.112c12.556-0.63,26.645-1.887,35.425-2.355
		c2.263-0.128,3.836-0.086,5.027,0.437c3.275,1.434,0.255,5.272-3.864,7.427c-1.698,0.864-2.705,1.163-5.317,1.431
		c-8.933,0.822-19.819,1.668-28.092,2.281c-10.699,0.705-14.163,3.57-11.456,6.183c3.489,3.336,10.948,8.813,13.273,11.851
		c0.634,0.86-0.438,1.478-2.921,2.467c-5.189,1.997-15.103,4.135-20.961,4.765c-3.678,0.395-3.956,0.126-5.089-0.656
		c-6.355-4.546-10.414-9.109-12.586-11.566C347.743,237.589,346.986,237.589,342.741,238.91"/>
	<path fill="#6D2F91" d="M233.401,152.062c-16.275,0-29.549,12.8-29.55,28.55c0,15.721,13.274,28.513,29.55,28.513
		c16.237,0,29.517-12.792,29.517-28.513C262.917,164.862,249.637,152.062,233.401,152.062z M233.401,191.664
		c-6.313,0-11.486-4.949-11.486-11.09c0.001-6.094,5.175-11.059,11.486-11.059s11.446,4.966,11.446,11.059
		C244.847,186.715,239.711,191.664,233.401,191.664z M116.456,124.12c-3.086,0-5.744,1.086-7.962,3.226
		c-2.22,2.174-3.352,4.741-3.352,7.743s1.132,5.616,3.352,7.792c2.218,2.13,4.875,3.217,7.962,3.217
		c3.094,0,5.744-1.086,7.967-3.217c2.219-2.176,3.353-4.79,3.353-7.792s-1.134-5.569-3.353-7.743
		C122.199,125.206,119.55,124.12,116.456,124.12z M116.455,152.504c-2.738,0-4.914,0.78-6.615,2.429
		c-1.695,1.613-2.521,3.79-2.521,6.446v44.303c2.65,2.222,5.61,3.443,8.829,3.443c3.483,0,6.752-1.481,9.579-4.092v-43.654
		C125.728,155.46,122.643,152.504,116.455,152.504z M78.201,158.935l-12.883,24.981l-13.45-26.021
		c-4.652-8.402-16.49-6.227-19.104,2.742c-0.263,0.873,0.217,1.873,0.741,2.78l22.197,39.954c2.131,3.881,5.35,5.752,9.615,5.752
		c4.309,0,7.49-1.871,9.662-5.752l22.16-39.954c0.519-0.906,0.999-1.907,0.778-2.78C95.653,152.504,83.16,149.366,78.201,158.935z
		 M180.913,158.935l-12.886,24.981l-13.442-26.021c-4.66-8.402-16.499-6.227-19.106,2.742c-0.265,0.873,0.216,1.873,0.736,2.78
		l22.197,39.954c2.134,3.881,5.354,5.752,9.615,5.752c4.271,0,7.493-1.871,9.671-5.752l22.149-39.954c0.52-0.906,1-1.907,0.786-2.78
		C198.365,152.504,185.879,149.366,180.913,158.935z M406.108,158.894c-1.454-1.851-2.989-2.327-5.107-2.527
		c-8.331-0.781-21.422-0.403-33.291-1.559c-3.983-0.385-3.944-8.525-0.504-8.976c11.624-1.513,21.615-9.674,24.498-21.326
		c3.263-13.189-3.589-26.646-15.769-32.689c-3.972-2.036-8.522-3.161-13.04-3.228c-13.5-0.308-25.894,8.389-29.156,21.578
		c-2.886,11.651,2.184,23.538,11.694,30.281c2.812,1.992-0.854,9.24-4.562,7.723c-11.078-4.522-22.477-10.957-30.182-14.144
		c-2.029-0.828-3.61-1.123-5.702-0.149c-5.678,2.521-9.618,12.42-9.456,18.571c0.071,2.474,0.552,3.405,2.682,4.631
		c7.146,4.13,16.205,8.758,23.226,12.109c9.033,4.348,7.354,11.915,0.083,17.461c-9.342,7.119-26.383,18.363-34.104,25.059
		c-2.134,1.821-2.188,3.605-1.505,6.479c1.449,6.065,7.303,13.446,11.856,16.402c2.785,1.84,3.574,1.272,6.165-0.419
		c14.2-9.211,26.313-19.111,32.696-24.354c3.529-2.87,4.265-2.688,6.046,1.493c3.24,7.626,9.334,22.031,17.607,36.802
		c1.505,2.703,1.864,3.553,5.256,3.242c5.378-0.5,14.029-4.293,18.137-8.979c1.943-2.228,2.667-3.847,1.66-6.444
		c-3.675-9.517-13.482-27.402-18.459-38.063c-3.848-8.295-1.835-15.783,8.223-15.404c7.739,0.296,17.908,0.428,26.221,0.12
		c2.425-0.096,3.25-0.706,4.499-2.854C408.796,174.356,409.932,163.764,406.108,158.894z"/>
</g>
</svg>
